<svg xmlns="http://www.w3.org/2000/svg" width="240" height="240"><path d="M0 0 C0.70181396 0.00757324 1.40362793 0.01514648 2.12670898 0.02294922 C10.41721352 0.2855921 16.51017769 3.08500167 22.5546875 8.6796875 C27.90256241 14.66611463 29.74848774 20.53074249 30.125 28.4375 C31.176875 27.9425 32.22875 27.4475 33.3125 26.9375 C40.87527954 24.13994084 49.11270884 24.35076916 56.625 27.1875 C64.82182422 31.00827774 69.93422413 36.92714171 73.27734375 45.3359375 C75.47914268 53.39228935 74.86821482 61.62780112 71.40625 69.20703125 C69.1013473 73.21952954 66.34205239 77.32897381 62.125 79.4375 C62.125 80.0975 62.125 80.7575 62.125 81.4375 C63.011875 82.118125 63.89875 82.79875 64.8125 83.5 C69.68781722 87.38176916 73.01002852 93.30515687 74.125 99.4375 C74.94188168 109.32042914 73.61829537 116.74472235 68.4375 125.1875 C60.40995628 132.99808308 52.4404639 135.84690161 41.33984375 135.70703125 C37.0901931 135.35074219 33.96688246 134.24544469 30.125 132.4375 C30.08375 133.71625 30.0425 134.995 30 136.3125 C29.16029365 143.71824347 25.16129461 149.86086463 19.75 154.875 C11.37428409 161.260805 2.24023291 161.47728941 -7.875 160.4375 C-16.45090726 158.10782441 -22.46649842 151.99209517 -27.03515625 144.546875 C-28.99004965 140.50979281 -29.1454584 136.85498714 -28.875 132.4375 C-30.4528125 133.18 -30.4528125 133.18 -32.0625 133.9375 C-39.54180133 136.70417961 -47.78300491 136.53294486 -55.25 133.8125 C-63.40455088 129.98593081 -67.95735072 125.07651481 -71.76953125 116.859375 C-74.20522899 109.31990073 -74.24335003 100.92311361 -71.3125 93.5 C-68.91530402 88.98055525 -65.67053967 84.86844349 -61.875 81.4375 C-61.215 81.4375 -60.555 81.4375 -59.875 81.4375 C-59.875 80.7775 -59.875 80.1175 -59.875 79.4375 C-60.47183594 79.17195313 -61.06867187 78.90640625 -61.68359375 78.6328125 C-66.81324396 75.83482148 -70.63113293 70.43650246 -72.39453125 64.921875 C-74.28336504 55.15522224 -73.6277266 46.6322117 -68.63671875 37.96484375 C-63.94317033 31.23152706 -57.85646776 27.39961082 -49.875 25.4375 C-42.20559787 24.6170952 -35.85936831 25.15073844 -28.875 28.4375 C-29.0296875 27.014375 -29.0296875 27.014375 -29.1875 25.5625 C-29.13593964 19.18190542 -25.97934914 13.76605082 -21.78515625 9.125 C-15.24773309 3.04575522 -9.0904429 -0.13794963 0 0 Z M-19.75 64.375 C-25.05841766 72.02536663 -25.96879999 78.23306989 -24.875 87.4375 C-22.40773645 94.81820293 -17.73069563 99.20468191 -11.109375 103.0390625 C-4.90817143 105.72025921 2.45848099 105.66316493 8.859375 103.5234375 C15.87624567 99.87372289 19.99325459 94.68075474 23.125 87.4375 C24.20168167 79.78408781 23.93049832 72.8244045 19.61328125 66.26953125 C15.2551022 60.90473867 9.74718554 56.94706889 2.79296875 55.96875 C-6.60468793 55.88437149 -13.32669859 57.19378692 -19.75 64.375 Z " fill="#010101" transform="translate(120.875,-0.4375)"></path><path d="M0 0 C14.72000118 11.76762541 23.78759966 25.25028475 30 43 C30.70962891 41.49373047 30.70962891 41.49373047 31.43359375 39.95703125 C42.9943468 15.85780897 59.55160371 -2.47444392 85 -12 C102.73986144 -17.89176864 121.97500302 -19.52591148 140 -14 C139.1875 -12.0625 139.1875 -12.0625 138 -10 C137.01 -9.67 136.02 -9.34 135 -9 C134.28414785 -7.69241523 133.62559654 -6.3530895 133 -5 C131.85573235 -3.42102283 130.68588296 -1.86046608 129.5 -0.3125 C126.03957401 4.37843849 123.03434581 9.20147956 120.125 14.25 C104.20835802 41.76965661 85.69723447 65.82676119 54.0078125 75.23828125 C31.25922261 80.99928778 5.55363893 77.89251686 -14.765625 66.44140625 C-21.54592112 62.34103164 -27.35411184 57.54407706 -33 52 C-33.70382813 51.32066406 -34.40765625 50.64132813 -35.1328125 49.94140625 C-46.22105225 38.46446437 -54.31829629 23.98060678 -62.375 10.3125 C-68.94083714 -1.27684926 -68.94083714 -1.27684926 -78.21875 -10.62109375 C-78.8065625 -11.07613281 -79.394375 -11.53117188 -80 -12 C-80 -12.66 -80 -13.32 -80 -14 C-51.73525998 -19.94302418 -24.01265783 -17.27392776 0 0 Z " fill="#010101" transform="translate(90,163)"></path></svg>